<?xml version="1.0" standalone="no"?>
<!DOCTYPE svg PUBLIC "-//W3C//DTD SVG 20010904//EN"
 "http://www.w3.org/TR/2001/REC-SVG-20010904/DTD/svg10.dtd">
<svg version="1.0" xmlns="http://www.w3.org/2000/svg"
 width="225.000000pt" height="256.000000pt" viewBox="0 0 225.000000 256.000000"
 preserveAspectRatio="xMidYMid meet">

<g transform="translate(0.000000,256.000000) scale(0.100000,-0.100000)"
fill="#000000" stroke="none">
<path d="M250 1822 c-179 -107 -197 -121 -218 -162 -41 -79 -31 -112 92 -318
l107 -180 66 37 c68 37 177 137 188 171 6 19 -43 122 -64 134 -4 3 -23 -6 -41
-19 -19 -14 -35 -25 -36 -25 -1 0 25 105 57 233 63 251 63 247 52 246 -5 0
-96 -53 -203 -117z"/>
<path d="M1090 1617 c0 -12 -152 -562 -156 -567 -3 -2 -18 1 -34 7 l-29 11
-26 -79 -27 -80 -32 7 c-30 5 -34 3 -39 -23 -4 -15 -31 -122 -62 -238 -51
-196 -54 -211 -39 -233 15 -23 18 -23 102 -17 118 10 188 49 228 127 13 26
124 459 124 486 0 6 -9 12 -19 12 -16 0 -20 9 -23 53 -5 68 9 294 27 427 7 58
11 107 9 109 -2 2 -4 2 -4 -2z"/>
</g>
</svg>
